<?xml version="1.0" standalone="no"?>
<!DOCTYPE svg PUBLIC "-//W3C//DTD SVG 20010904//EN"
 "http://www.w3.org/TR/2001/REC-SVG-20010904/DTD/svg10.dtd">
<svg version="1.0" xmlns="http://www.w3.org/2000/svg"
 width="880.000000pt" height="880.000000pt" viewBox="0 0 880.000000 880.000000"
 preserveAspectRatio="xMidYMid meet">
<metadata>
Created by potrace 1.14, written by Peter Selinger 2001-2017
</metadata>
<g transform="translate(0.000000,880.000000) scale(0.100000,-0.100000)"
fill="#000000" stroke="none">
<path d="M0 4400 l0 -4400 4400 0 4400 0 0 4400 0 4400 -4400 0 -4400 0 0
-4400z m2115 3677 c135 -40 325 -105 570 -197 496 -185 587 -227 1315 -595
388 -197 711 -358 718 -358 6 0 12 -4 12 -8 0 -5 7 -5 17 -2 12 5 14 3 8 -7
-6 -10 -4 -12 8 -7 10 3 17 2 17 -4 0 -6 4 -8 9 -5 5 4 11 1 13 -4 2 -6 13
-12 26 -13 12 0 22 -5 22 -10 0 -5 7 -7 15 -3 8 3 15 1 15 -5 0 -6 7 -8 16 -5
9 4 13 2 8 -5 -4 -8 1 -9 16 -4 17 5 21 4 15 -6 -6 -9 -3 -11 8 -6 10 3 17 2
17 -4 0 -6 4 -8 9 -5 5 4 11 1 13 -4 2 -6 13 -12 26 -13 12 0 22 -5 22 -10 0
-5 7 -7 15 -3 8 3 15 1 15 -5 0 -6 5 -7 10 -4 6 3 10 2 10 -3 0 -9 82 -40 89
-34 2 2 7 0 10 -5 3 -5 184 -79 401 -165 664 -264 938 -362 1188 -429 l113
-30 91 26 c172 49 322 147 455 297 140 159 233 345 233 469 0 55 6 58 125 59
268 3 334 0 330 -12 -2 -7 -6 -65 -9 -128 -13 -278 -33 -375 -106 -520 -111
-220 -286 -375 -543 -480 -135 -55 -321 -92 -416 -82 -39 4 -52 2 -47 -6 16
-26 -221 -12 -424 24 -317 56 -934 274 -1835 646 -132 55 -352 146 -490 203
-154 64 -430 192 -720 337 -742 369 -1285 612 -1554 694 -64 19 -126 39 -138
44 -25 10 -92 -5 -198 -44 -181 -69 -302 -167 -442 -361 -92 -126 -154 -278
-168 -408 l-7 -67 -178 1 -177 0 -6 101 c-10 180 38 443 105 577 72 143 173
272 278 356 165 132 313 197 570 253 25 5 128 9 230 8 168 -2 193 -5 275 -29z
m-945 -3302 l0 -655 3245 0 3245 0 0 655 0 654 245 211 245 211 0 -1148 0
-1148 -3735 0 -3735 0 0 1148 0 1148 245 -211 245 -211 0 -654z m5887 959 c-3
-3 -12 -4 -19 -1 -8 3 -5 6 6 6 11 1 17 -2 13 -5z m-2152 -2594 c896 -46 1539
-159 2205 -388 414 -142 781 -371 908 -566 111 -171 111 -371 0 -542 -48 -74
-177 -196 -281 -265 -120 -80 -416 -225 -587 -287 -597 -219 -1356 -358 -2200
-402 -249 -13 -897 -13 -1150 0 -626 32 -1140 106 -1675 242 -604 153 -1064
365 -1295 597 -129 130 -180 240 -180 386 0 147 51 257 180 385 203 203 530
370 1027 524 568 176 1185 275 1948 315 231 12 878 13 1100 1z"/>
<path d="M3910 2719 c-1077 -53 -1961 -277 -2247 -571 -73 -76 -98 -128 -98
-208 0 -80 25 -132 98 -208 418 -429 2045 -679 3567 -547 931 81 1644 287
1897 547 73 76 98 128 98 208 0 80 -25 132 -98 208 -291 299 -1167 518 -2282
572 -239 11 -690 11 -935 -1z"/>
</g>
</svg>
